# xmcd
#
# Track frame offsets:
#	150
#	13648
#	26975
#	41683
#	54758
#	67843
#	81248
#	94808
#	109308
#	123470
#	138178
#	151548
#	165755
#	177325
#	202780
#	214653
#	228005
#	242193
#	254865
#	266768
#	281003
#
# Disc length: 3911 seconds
#
# Revision: 0
# Processed by: cddbd v1.5.1PL2 Copyright (c) Steve Scherf et al.
# Submitted via: EasyCDDAExtractor 4.5.0.2
#
DISCID=190f4515
DTITLE=Various Artist - Gin House Blues
DYEAR=1992
DGENRE=Blues
TTITLE0=What Have You Done To Make Me Feel This Way - Mamie Smith
TTITLE1=Graysom Street Blues - Margaret Johnson with The Black And Blue Trio
TTITLE2=Gin House Blues - Bessie Smith
TTITLE3=Sweet Virginia Blues - Mamie Smith
TTITLE4=Low Down Dirty Groundhog - Lether McGraw (with Sam Price's Fly Cats)
TTITLE5=When A 'Gator Hollers, Folks Say It's A Sign Of Rain - Margaret Johnso
TTITLE5=n (with The Black And Blue Trio)
TTITLE6=After You've Gone - Bessie Smith And Her Band
TTITLE7=Way After One And My Daddy Ain't Come Home Yet - Edna Winston
TTITLE8=Rent Man Blues - Edna Winston
TTITLE9=Goin' Crazy With The Blues - Mamie Smith
TTITLE10=Hard Driving Papa - Bessie Smith
TTITLE11=If You're A Viper - Rosetta Howard (with The Harlem Hamfats)
TTITLE12=Do Your Duty - Lether McGraw (with Sam Price's Fly Cats)
TTITLE13=My Daddy Rocks Me (Parts 1 And 2) - Trixie Smith
TTITLE14=I've Lost My Head Over You - Babe Hines (with Skeets Tolbert And His 
TTITLE14=Gentlemen Of Swing)
TTITLE15=I'm Tired Of Fattenin' Frogs For Snakes - Rosetta Crawford And Her He
TTITLE15=p Cats
TTITLE16=Young Woman's Blues - Bessie Smith And Her Blue Boys
TTITLE17=Rosetta Blues - Rosetta Howard (with The Harlem Hamfats)
TTITLE18=Double Crossin' Papa - Rosetta Crawford And Her Hep Cats
TTITLE19=This Is The End - Babe Hines (with Skeets Tolbert And His Gentlemen O
TTITLE19=f Swing)
TTITLE20=What's The Matter Now - Bessie Smith (with Clarence Williams)
EXTD=
EXTT0=
EXTT1=
EXTT2=
EXTT3=
EXTT4=
EXTT5=
EXTT6=
EXTT7=
EXTT8=
EXTT9=
EXTT10=
EXTT11=
EXTT12=
EXTT13=
EXTT14=
EXTT15=
EXTT16=
EXTT17=
EXTT18=
EXTT19=
EXTT20=
PLAYORDER=
